<svg width="825" height="1000" viewBox="0 0 825 1000" fill="none" xmlns="http://www.w3.org/2000/svg">
<g clip-path="url(#clip0_25_2)">
<rect width="824.47" height="1000" fill="white"/>
<path d="M547.872 1000H0V673.168V0H488.18C683.215 0 764.775 147.163 764.775 263.002C764.775 355.674 702.128 431.639 670.804 458.038C722.025 483.058 824.468 569.622 824.468 715.721C824.468 898.345 653.664 1000 547.872 1000Z" fill="#163494" stroke="black"/>
<path d="M0 0H488.18C519.657 0 548.178 3.83311 573.877 10.749C643.617 133.57 647.754 384.752 416.076 504.137C184.397 623.522 0 442.671 0 442.671V0Z" fill="#F8D95D" stroke="black"/>
<path d="M547.872 1000L176.123 1000C176.123 1000 136.525 966.312 176.123 933.215C213.357 902.094 342.199 862.293 342.199 803.782C342.199 745.272 293.144 718.676 302.6 661.348C315.761 581.56 523.05 569.149 670.804 458.038C722.025 483.057 824.469 569.622 824.469 715.721C824.469 898.345 653.664 1000 547.872 1000Z" fill="url(#paint0_linear_25_2)"/>
<path d="M310.875 291.371C155.437 455.083 23.0496 712.175 1.80364e-05 972.222V673.168C90.4255 475.768 238.18 314.421 289.598 276.005C256.501 267.139 204.492 257.683 119.385 262.411C163.121 196.217 264.184 217.494 299.054 250C286.643 231.678 246.454 144.799 167.849 50.8274C266.548 48.4633 329.196 141.844 329.196 243.499C372.34 151.891 455.674 124.704 528.96 138.298C494.09 163.712 437.352 202.719 356.383 257.683C459.811 247.045 492.317 306.147 499.409 371.158C484.043 359.929 409.575 299.645 338.653 278.96C398.345 354.019 354.61 476.359 287.825 507.683C316.194 407.21 316.785 343.381 310.875 291.371Z" fill="black"/>
</g>
<defs>
<linearGradient id="paint0_linear_25_2" x1="491.496" y1="458.038" x2="491.496" y2="1000" gradientUnits="userSpaceOnUse">
<stop stop-color="#96F85D"/>
<stop offset="1" stop-color="#169427"/>
</linearGradient>
<clipPath id="clip0_25_2">
<rect width="824.47" height="1000" fill="white"/>
</clipPath>
</defs>
</svg>
